<mxfile host="app.diagrams.net" modified="2023-12-02T06:06:02.910Z" agent="Mozilla/5.0 (Windows NT 10.0; Win64; x64) AppleWebKit/537.36 (KHTML, like Gecko) Chrome/119.0.0.0 Safari/537.36" etag="pEfE9KIp5kehjU4u7ogO" version="22.1.5" type="github">
  <diagram name="Page-1" id="yN-8CEZ-ahlFTU7p4GhJ">
    <mxGraphModel dx="1012" dy="645" grid="1" gridSize="10" guides="1" tooltips="1" connect="1" arrows="1" fold="1" page="1" pageScale="1" pageWidth="850" pageHeight="1100" math="0" shadow="0">
      <root>
        <mxCell id="0" />
        <mxCell id="1" parent="0" />
        <mxCell id="nG5yOjNzxIH1vcLrPPvf-18" value="tbl_Customers" style="shape=table;startSize=30;container=1;collapsible=1;childLayout=tableLayout;fixedRows=1;rowLines=0;fontStyle=1;align=center;resizeLast=1;html=1;" parent="1" vertex="1">
          <mxGeometry x="450" y="120" width="214" height="270" as="geometry" />
        </mxCell>
        <mxCell id="nG5yOjNzxIH1vcLrPPvf-19" value="" style="shape=tableRow;horizontal=0;startSize=0;swimlaneHead=0;swimlaneBody=0;fillColor=none;collapsible=0;dropTarget=0;points=[[0,0.5],[1,0.5]];portConstraint=eastwest;top=0;left=0;right=0;bottom=1;" parent="nG5yOjNzxIH1vcLrPPvf-18" vertex="1">
          <mxGeometry y="30" width="214" height="24" as="geometry" />
        </mxCell>
        <mxCell id="nG5yOjNzxIH1vcLrPPvf-20" value="PK" style="shape=partialRectangle;connectable=0;fillColor=none;top=0;left=0;bottom=0;right=0;fontStyle=1;overflow=hidden;whiteSpace=wrap;html=1;" parent="nG5yOjNzxIH1vcLrPPvf-19" vertex="1">
          <mxGeometry width="30" height="24" as="geometry">
            <mxRectangle width="30" height="24" as="alternateBounds" />
          </mxGeometry>
        </mxCell>
        <mxCell id="nG5yOjNzxIH1vcLrPPvf-21" value="CustomerID&#x9;&lt;span style=&quot;border-color: var(--border-color);&quot;&gt;&lt;/span&gt;int" style="shape=partialRectangle;connectable=0;fillColor=none;top=0;left=0;bottom=0;right=0;align=left;spacingLeft=6;fontStyle=5;overflow=hidden;whiteSpace=wrap;html=1;" parent="nG5yOjNzxIH1vcLrPPvf-19" vertex="1">
          <mxGeometry x="30" width="184" height="24" as="geometry">
            <mxRectangle width="184" height="24" as="alternateBounds" />
          </mxGeometry>
        </mxCell>
        <mxCell id="nG5yOjNzxIH1vcLrPPvf-22" value="" style="shape=tableRow;horizontal=0;startSize=0;swimlaneHead=0;swimlaneBody=0;fillColor=none;collapsible=0;dropTarget=0;points=[[0,0.5],[1,0.5]];portConstraint=eastwest;top=0;left=0;right=0;bottom=0;" parent="nG5yOjNzxIH1vcLrPPvf-18" vertex="1">
          <mxGeometry y="54" width="214" height="24" as="geometry" />
        </mxCell>
        <mxCell id="nG5yOjNzxIH1vcLrPPvf-23" value="" style="shape=partialRectangle;connectable=0;fillColor=none;top=0;left=0;bottom=0;right=0;editable=1;overflow=hidden;whiteSpace=wrap;html=1;" parent="nG5yOjNzxIH1vcLrPPvf-22" vertex="1">
          <mxGeometry width="30" height="24" as="geometry">
            <mxRectangle width="30" height="24" as="alternateBounds" />
          </mxGeometry>
        </mxCell>
        <mxCell id="nG5yOjNzxIH1vcLrPPvf-24" value="First_Name&#x9;&lt;span style=&quot;white-space: pre;&quot;&gt;&#x9;&lt;/span&gt;&lt;span style=&quot;white-space: pre;&quot;&gt;&#x9;&lt;/span&gt;&lt;span style=&quot;border-color: var(--border-color);&quot;&gt;&lt;/span&gt;varchar(50)" style="shape=partialRectangle;connectable=0;fillColor=none;top=0;left=0;bottom=0;right=0;align=left;spacingLeft=6;overflow=hidden;whiteSpace=wrap;html=1;" parent="nG5yOjNzxIH1vcLrPPvf-22" vertex="1">
          <mxGeometry x="30" width="184" height="24" as="geometry">
            <mxRectangle width="184" height="24" as="alternateBounds" />
          </mxGeometry>
        </mxCell>
        <mxCell id="nG5yOjNzxIH1vcLrPPvf-25" value="" style="shape=tableRow;horizontal=0;startSize=0;swimlaneHead=0;swimlaneBody=0;fillColor=none;collapsible=0;dropTarget=0;points=[[0,0.5],[1,0.5]];portConstraint=eastwest;top=0;left=0;right=0;bottom=0;" parent="nG5yOjNzxIH1vcLrPPvf-18" vertex="1">
          <mxGeometry y="78" width="214" height="24" as="geometry" />
        </mxCell>
        <mxCell id="nG5yOjNzxIH1vcLrPPvf-26" value="" style="shape=partialRectangle;connectable=0;fillColor=none;top=0;left=0;bottom=0;right=0;editable=1;overflow=hidden;whiteSpace=wrap;html=1;" parent="nG5yOjNzxIH1vcLrPPvf-25" vertex="1">
          <mxGeometry width="30" height="24" as="geometry">
            <mxRectangle width="30" height="24" as="alternateBounds" />
          </mxGeometry>
        </mxCell>
        <mxCell id="nG5yOjNzxIH1vcLrPPvf-27" value="Last_Name&#x9;&lt;span style=&quot;white-space: pre;&quot;&gt;&#x9;&lt;/span&gt;&lt;span style=&quot;white-space: pre;&quot;&gt;&#x9;&lt;/span&gt;&lt;span style=&quot;border-color: var(--border-color);&quot;&gt;&lt;/span&gt;varchar(50)" style="shape=partialRectangle;connectable=0;fillColor=none;top=0;left=0;bottom=0;right=0;align=left;spacingLeft=6;overflow=hidden;whiteSpace=wrap;html=1;" parent="nG5yOjNzxIH1vcLrPPvf-25" vertex="1">
          <mxGeometry x="30" width="184" height="24" as="geometry">
            <mxRectangle width="184" height="24" as="alternateBounds" />
          </mxGeometry>
        </mxCell>
        <mxCell id="nG5yOjNzxIH1vcLrPPvf-28" value="" style="shape=tableRow;horizontal=0;startSize=0;swimlaneHead=0;swimlaneBody=0;fillColor=none;collapsible=0;dropTarget=0;points=[[0,0.5],[1,0.5]];portConstraint=eastwest;top=0;left=0;right=0;bottom=0;strokeColor=default;" parent="nG5yOjNzxIH1vcLrPPvf-18" vertex="1">
          <mxGeometry y="102" width="214" height="28" as="geometry" />
        </mxCell>
        <mxCell id="nG5yOjNzxIH1vcLrPPvf-29" value="" style="shape=partialRectangle;connectable=0;fillColor=none;top=0;left=0;bottom=0;right=0;editable=1;overflow=hidden;whiteSpace=wrap;html=1;" parent="nG5yOjNzxIH1vcLrPPvf-28" vertex="1">
          <mxGeometry width="30" height="28" as="geometry">
            <mxRectangle width="30" height="28" as="alternateBounds" />
          </mxGeometry>
        </mxCell>
        <mxCell id="nG5yOjNzxIH1vcLrPPvf-30" value="Email&#x9;&lt;span style=&quot;white-space: pre;&quot;&gt;&#x9;&lt;/span&gt;&lt;span style=&quot;white-space: pre;&quot;&gt;&#x9;&lt;/span&gt;&lt;span style=&quot;white-space: pre;&quot;&gt;&#x9;&lt;/span&gt;&lt;span style=&quot;border-color: var(--border-color);&quot;&gt;&lt;/span&gt;varchar(100)" style="shape=partialRectangle;connectable=0;fillColor=none;top=0;left=0;bottom=0;right=0;align=left;spacingLeft=6;overflow=hidden;whiteSpace=wrap;html=1;" parent="nG5yOjNzxIH1vcLrPPvf-28" vertex="1">
          <mxGeometry x="30" width="184" height="28" as="geometry">
            <mxRectangle width="184" height="28" as="alternateBounds" />
          </mxGeometry>
        </mxCell>
        <mxCell id="1pU03YvxmxOZ_lnWLBFP-92" style="shape=tableRow;horizontal=0;startSize=0;swimlaneHead=0;swimlaneBody=0;fillColor=none;collapsible=0;dropTarget=0;points=[[0,0.5],[1,0.5]];portConstraint=eastwest;top=0;left=0;right=0;bottom=0;strokeColor=default;" vertex="1" parent="nG5yOjNzxIH1vcLrPPvf-18">
          <mxGeometry y="130" width="214" height="20" as="geometry" />
        </mxCell>
        <mxCell id="1pU03YvxmxOZ_lnWLBFP-93" style="shape=partialRectangle;connectable=0;fillColor=none;top=0;left=0;bottom=0;right=0;editable=1;overflow=hidden;whiteSpace=wrap;html=1;" vertex="1" parent="1pU03YvxmxOZ_lnWLBFP-92">
          <mxGeometry width="30" height="20" as="geometry">
            <mxRectangle width="30" height="20" as="alternateBounds" />
          </mxGeometry>
        </mxCell>
        <mxCell id="1pU03YvxmxOZ_lnWLBFP-94" value="Phone_Number&#x9;&lt;span style=&quot;white-space: pre;&quot;&gt;&#x9;&lt;/span&gt;varchar(15)" style="shape=partialRectangle;connectable=0;fillColor=none;top=0;left=0;bottom=0;right=0;align=left;spacingLeft=6;overflow=hidden;whiteSpace=wrap;html=1;" vertex="1" parent="1pU03YvxmxOZ_lnWLBFP-92">
          <mxGeometry x="30" width="184" height="20" as="geometry">
            <mxRectangle width="184" height="20" as="alternateBounds" />
          </mxGeometry>
        </mxCell>
        <mxCell id="1pU03YvxmxOZ_lnWLBFP-89" style="shape=tableRow;horizontal=0;startSize=0;swimlaneHead=0;swimlaneBody=0;fillColor=none;collapsible=0;dropTarget=0;points=[[0,0.5],[1,0.5]];portConstraint=eastwest;top=0;left=0;right=0;bottom=0;strokeColor=default;" vertex="1" parent="nG5yOjNzxIH1vcLrPPvf-18">
          <mxGeometry y="150" width="214" height="24" as="geometry" />
        </mxCell>
        <mxCell id="1pU03YvxmxOZ_lnWLBFP-90" style="shape=partialRectangle;connectable=0;fillColor=none;top=0;left=0;bottom=0;right=0;editable=1;overflow=hidden;whiteSpace=wrap;html=1;" vertex="1" parent="1pU03YvxmxOZ_lnWLBFP-89">
          <mxGeometry width="30" height="24" as="geometry">
            <mxRectangle width="30" height="24" as="alternateBounds" />
          </mxGeometry>
        </mxCell>
        <mxCell id="1pU03YvxmxOZ_lnWLBFP-91" value="Address1&#x9;&lt;span style=&quot;border-color: var(--border-color);&quot;&gt;&lt;span style=&quot;white-space: pre;&quot;&gt;&amp;nbsp;&amp;nbsp;&amp;nbsp;&amp;nbsp;&lt;span style=&quot;white-space: pre;&quot;&gt;&#x9;&lt;/span&gt;&lt;span style=&quot;white-space: pre;&quot;&gt;&#x9;&lt;/span&gt;&lt;/span&gt;&lt;/span&gt;&lt;span style=&quot;border-color: var(--border-color);&quot;&gt;&lt;/span&gt;varchar(50)" style="shape=partialRectangle;connectable=0;fillColor=none;top=0;left=0;bottom=0;right=0;align=left;spacingLeft=6;overflow=hidden;whiteSpace=wrap;html=1;" vertex="1" parent="1pU03YvxmxOZ_lnWLBFP-89">
          <mxGeometry x="30" width="184" height="24" as="geometry">
            <mxRectangle width="184" height="24" as="alternateBounds" />
          </mxGeometry>
        </mxCell>
        <mxCell id="1pU03YvxmxOZ_lnWLBFP-86" style="shape=tableRow;horizontal=0;startSize=0;swimlaneHead=0;swimlaneBody=0;fillColor=none;collapsible=0;dropTarget=0;points=[[0,0.5],[1,0.5]];portConstraint=eastwest;top=0;left=0;right=0;bottom=0;strokeColor=default;" vertex="1" parent="nG5yOjNzxIH1vcLrPPvf-18">
          <mxGeometry y="174" width="214" height="24" as="geometry" />
        </mxCell>
        <mxCell id="1pU03YvxmxOZ_lnWLBFP-87" style="shape=partialRectangle;connectable=0;fillColor=none;top=0;left=0;bottom=0;right=0;editable=1;overflow=hidden;whiteSpace=wrap;html=1;" vertex="1" parent="1pU03YvxmxOZ_lnWLBFP-86">
          <mxGeometry width="30" height="24" as="geometry">
            <mxRectangle width="30" height="24" as="alternateBounds" />
          </mxGeometry>
        </mxCell>
        <mxCell id="1pU03YvxmxOZ_lnWLBFP-88" value="Address2&#x9;&lt;span style=&quot;border-color: var(--border-color);&quot;&gt;&lt;span style=&quot;white-space: pre;&quot;&gt;&amp;nbsp;&amp;nbsp;&amp;nbsp;&amp;nbsp;&lt;/span&gt;&lt;/span&gt;&lt;span style=&quot;border-color: var(--border-color);&quot;&gt;&lt;span style=&quot;white-space: pre;&quot;&gt;&amp;nbsp;&amp;nbsp;&amp;nbsp;&amp;nbsp;&lt;span style=&quot;white-space: pre;&quot;&gt;&#x9;&lt;/span&gt;&lt;/span&gt;&lt;/span&gt;varchar(50)" style="shape=partialRectangle;connectable=0;fillColor=none;top=0;left=0;bottom=0;right=0;align=left;spacingLeft=6;overflow=hidden;whiteSpace=wrap;html=1;" vertex="1" parent="1pU03YvxmxOZ_lnWLBFP-86">
          <mxGeometry x="30" width="184" height="24" as="geometry">
            <mxRectangle width="184" height="24" as="alternateBounds" />
          </mxGeometry>
        </mxCell>
        <mxCell id="1pU03YvxmxOZ_lnWLBFP-83" style="shape=tableRow;horizontal=0;startSize=0;swimlaneHead=0;swimlaneBody=0;fillColor=none;collapsible=0;dropTarget=0;points=[[0,0.5],[1,0.5]];portConstraint=eastwest;top=0;left=0;right=0;bottom=0;strokeColor=default;" vertex="1" parent="nG5yOjNzxIH1vcLrPPvf-18">
          <mxGeometry y="198" width="214" height="24" as="geometry" />
        </mxCell>
        <mxCell id="1pU03YvxmxOZ_lnWLBFP-84" style="shape=partialRectangle;connectable=0;fillColor=none;top=0;left=0;bottom=0;right=0;editable=1;overflow=hidden;whiteSpace=wrap;html=1;" vertex="1" parent="1pU03YvxmxOZ_lnWLBFP-83">
          <mxGeometry width="30" height="24" as="geometry">
            <mxRectangle width="30" height="24" as="alternateBounds" />
          </mxGeometry>
        </mxCell>
        <mxCell id="1pU03YvxmxOZ_lnWLBFP-85" value="City&#x9;&lt;span style=&quot;border-color: var(--border-color);&quot;&gt;&lt;span style=&quot;white-space: pre;&quot;&gt;&amp;nbsp;&amp;nbsp;&amp;nbsp;&amp;nbsp;&lt;/span&gt;&lt;/span&gt;&lt;span style=&quot;border-color: var(--border-color);&quot;&gt;&lt;span style=&quot;white-space: pre;&quot;&gt;&amp;nbsp;&amp;nbsp;&amp;nbsp;&amp;nbsp;&lt;/span&gt;&lt;/span&gt;&lt;span style=&quot;border-color: var(--border-color);&quot;&gt;&lt;span style=&quot;white-space: pre;&quot;&gt;&amp;nbsp;&amp;nbsp;&amp;nbsp;&amp;nbsp;&lt;span style=&quot;white-space: pre;&quot;&gt;&#x9;&lt;/span&gt;&lt;span style=&quot;white-space: pre;&quot;&gt;&#x9;&lt;/span&gt;&lt;/span&gt;&lt;/span&gt;varchar(30)" style="shape=partialRectangle;connectable=0;fillColor=none;top=0;left=0;bottom=0;right=0;align=left;spacingLeft=6;overflow=hidden;whiteSpace=wrap;html=1;" vertex="1" parent="1pU03YvxmxOZ_lnWLBFP-83">
          <mxGeometry x="30" width="184" height="24" as="geometry">
            <mxRectangle width="184" height="24" as="alternateBounds" />
          </mxGeometry>
        </mxCell>
        <mxCell id="1pU03YvxmxOZ_lnWLBFP-80" style="shape=tableRow;horizontal=0;startSize=0;swimlaneHead=0;swimlaneBody=0;fillColor=none;collapsible=0;dropTarget=0;points=[[0,0.5],[1,0.5]];portConstraint=eastwest;top=0;left=0;right=0;bottom=0;strokeColor=default;" vertex="1" parent="nG5yOjNzxIH1vcLrPPvf-18">
          <mxGeometry y="222" width="214" height="24" as="geometry" />
        </mxCell>
        <mxCell id="1pU03YvxmxOZ_lnWLBFP-81" style="shape=partialRectangle;connectable=0;fillColor=none;top=0;left=0;bottom=0;right=0;editable=1;overflow=hidden;whiteSpace=wrap;html=1;" vertex="1" parent="1pU03YvxmxOZ_lnWLBFP-80">
          <mxGeometry width="30" height="24" as="geometry">
            <mxRectangle width="30" height="24" as="alternateBounds" />
          </mxGeometry>
        </mxCell>
        <mxCell id="1pU03YvxmxOZ_lnWLBFP-82" value="State&#x9;&lt;span style=&quot;white-space: pre;&quot;&gt;&#x9;&lt;/span&gt;&lt;span style=&quot;white-space: pre;&quot;&gt;&#x9;&lt;/span&gt;&lt;span style=&quot;white-space: pre;&quot;&gt;&#x9;&lt;/span&gt;&lt;span style=&quot;border-color: var(--border-color);&quot;&gt;&lt;/span&gt;varchar(2)" style="shape=partialRectangle;connectable=0;fillColor=none;top=0;left=0;bottom=0;right=0;align=left;spacingLeft=6;overflow=hidden;whiteSpace=wrap;html=1;" vertex="1" parent="1pU03YvxmxOZ_lnWLBFP-80">
          <mxGeometry x="30" width="184" height="24" as="geometry">
            <mxRectangle width="184" height="24" as="alternateBounds" />
          </mxGeometry>
        </mxCell>
        <mxCell id="1pU03YvxmxOZ_lnWLBFP-77" style="shape=tableRow;horizontal=0;startSize=0;swimlaneHead=0;swimlaneBody=0;fillColor=none;collapsible=0;dropTarget=0;points=[[0,0.5],[1,0.5]];portConstraint=eastwest;top=0;left=0;right=0;bottom=0;strokeColor=default;" vertex="1" parent="nG5yOjNzxIH1vcLrPPvf-18">
          <mxGeometry y="246" width="214" height="24" as="geometry" />
        </mxCell>
        <mxCell id="1pU03YvxmxOZ_lnWLBFP-78" style="shape=partialRectangle;connectable=0;fillColor=none;top=0;left=0;bottom=0;right=0;editable=1;overflow=hidden;whiteSpace=wrap;html=1;" vertex="1" parent="1pU03YvxmxOZ_lnWLBFP-77">
          <mxGeometry width="30" height="24" as="geometry">
            <mxRectangle width="30" height="24" as="alternateBounds" />
          </mxGeometry>
        </mxCell>
        <mxCell id="1pU03YvxmxOZ_lnWLBFP-79" value="Zip_Code&#x9;&lt;span style=&quot;white-space: pre;&quot;&gt;&#x9;&lt;/span&gt;&lt;span style=&quot;white-space: pre;&quot;&gt;&#x9;&lt;/span&gt;&lt;span style=&quot;border-color: var(--border-color);&quot;&gt;&lt;/span&gt;varchar(5)" style="shape=partialRectangle;connectable=0;fillColor=none;top=0;left=0;bottom=0;right=0;align=left;spacingLeft=6;overflow=hidden;whiteSpace=wrap;html=1;" vertex="1" parent="1pU03YvxmxOZ_lnWLBFP-77">
          <mxGeometry x="30" width="184" height="24" as="geometry">
            <mxRectangle width="184" height="24" as="alternateBounds" />
          </mxGeometry>
        </mxCell>
        <mxCell id="nG5yOjNzxIH1vcLrPPvf-31" value="" style="edgeStyle=entityRelationEdgeStyle;fontSize=12;html=1;endArrow=ERzeroToMany;startArrow=ERmandOne;rounded=0;entryX=0;entryY=0.5;entryDx=0;entryDy=0;" parent="1" edge="1">
          <mxGeometry width="100" height="100" relative="1" as="geometry">
            <mxPoint x="350" y="50" as="sourcePoint" />
            <mxPoint x="540" y="62" as="targetPoint" />
          </mxGeometry>
        </mxCell>
        <mxCell id="1pU03YvxmxOZ_lnWLBFP-49" value="" style="group;imageAspect=1;" vertex="1" connectable="0" parent="1">
          <mxGeometry x="110" y="440" width="240" height="340" as="geometry" />
        </mxCell>
        <object label="tbl_Customers" id="1pU03YvxmxOZ_lnWLBFP-50">
          <mxCell style="shape=table;startSize=30;container=1;collapsible=1;childLayout=tableLayout;fixedRows=1;rowLines=0;fontStyle=1;align=center;resizeLast=1;html=1;columnLines=0;" vertex="1" parent="1pU03YvxmxOZ_lnWLBFP-49">
            <mxGeometry width="240" height="150" as="geometry">
              <mxRectangle width="70" height="30" as="alternateBounds" />
            </mxGeometry>
          </mxCell>
        </object>
        <mxCell id="1pU03YvxmxOZ_lnWLBFP-51" value="" style="shape=tableRow;horizontal=0;startSize=0;swimlaneHead=0;swimlaneBody=0;fillColor=none;collapsible=0;dropTarget=0;points=[[0,0.5],[1,0.5]];portConstraint=eastwest;top=0;left=0;right=0;bottom=1;" vertex="1" parent="1pU03YvxmxOZ_lnWLBFP-50">
          <mxGeometry y="30" width="240" height="30" as="geometry" />
        </mxCell>
        <mxCell id="1pU03YvxmxOZ_lnWLBFP-52" value="PK" style="shape=partialRectangle;connectable=0;fillColor=none;top=0;left=0;bottom=0;right=0;fontStyle=1;overflow=hidden;whiteSpace=wrap;html=1;" vertex="1" parent="1pU03YvxmxOZ_lnWLBFP-51">
          <mxGeometry width="30" height="30" as="geometry">
            <mxRectangle width="30" height="30" as="alternateBounds" />
          </mxGeometry>
        </mxCell>
        <mxCell id="1pU03YvxmxOZ_lnWLBFP-53" value="CustomerID&lt;span style=&quot;white-space: pre;&quot;&gt;&#x9;&lt;span style=&quot;white-space: pre;&quot;&gt;&#x9;&lt;/span&gt;&lt;/span&gt;int" style="shape=partialRectangle;connectable=0;fillColor=none;top=0;left=0;bottom=0;right=0;align=left;spacingLeft=6;fontStyle=5;overflow=hidden;whiteSpace=wrap;html=1;" vertex="1" parent="1pU03YvxmxOZ_lnWLBFP-51">
          <mxGeometry x="30" width="210" height="30" as="geometry">
            <mxRectangle width="210" height="30" as="alternateBounds" />
          </mxGeometry>
        </mxCell>
        <mxCell id="1pU03YvxmxOZ_lnWLBFP-54" value="" style="shape=tableRow;horizontal=0;startSize=0;swimlaneHead=0;swimlaneBody=0;fillColor=none;collapsible=0;dropTarget=0;points=[[0,0.5],[1,0.5]];portConstraint=eastwest;top=0;left=0;right=0;bottom=0;" vertex="1" parent="1pU03YvxmxOZ_lnWLBFP-50">
          <mxGeometry y="60" width="240" height="30" as="geometry" />
        </mxCell>
        <mxCell id="1pU03YvxmxOZ_lnWLBFP-55" value="" style="shape=partialRectangle;connectable=0;fillColor=none;top=0;left=0;bottom=0;right=0;editable=1;overflow=hidden;whiteSpace=wrap;html=1;" vertex="1" parent="1pU03YvxmxOZ_lnWLBFP-54">
          <mxGeometry width="30" height="30" as="geometry">
            <mxRectangle width="30" height="30" as="alternateBounds" />
          </mxGeometry>
        </mxCell>
        <mxCell id="1pU03YvxmxOZ_lnWLBFP-56" value="&lt;span id=&quot;docs-internal-guid-1d566162-7fff-ff5a-b0f8-fcd0bff6a7b5&quot;&gt;&lt;/span&gt;&lt;span id=&quot;docs-internal-guid-1d566162-7fff-ff5a-b0f8-fcd0bff6a7b5&quot;&gt;&lt;/span&gt;&lt;span style=&quot;&quot;&gt;&lt;span style=&quot;&quot;&gt;First_Name&lt;span style=&quot;white-space: pre;&quot;&gt;&#x9;&lt;span style=&quot;white-space: pre;&quot;&gt;&#x9;&lt;/span&gt;&lt;/span&gt;&lt;/span&gt;&lt;/span&gt;varchar(50)" style="shape=partialRectangle;connectable=0;fillColor=none;top=0;left=0;bottom=0;right=0;align=left;spacingLeft=6;overflow=hidden;whiteSpace=wrap;html=1;" vertex="1" parent="1pU03YvxmxOZ_lnWLBFP-54">
          <mxGeometry x="30" width="210" height="30" as="geometry">
            <mxRectangle width="210" height="30" as="alternateBounds" />
          </mxGeometry>
        </mxCell>
        <mxCell id="1pU03YvxmxOZ_lnWLBFP-59" value="Email&lt;span style=&quot;white-space: pre;&quot;&gt;&#x9;&lt;span style=&quot;white-space: pre;&quot;&gt;&#x9;&lt;span style=&quot;white-space: pre;&quot;&gt;&#x9;&lt;/span&gt;&lt;/span&gt;&lt;/span&gt;varchar(100)" style="shape=partialRectangle;connectable=0;fillColor=none;top=0;left=0;bottom=0;right=0;align=left;spacingLeft=6;overflow=hidden;whiteSpace=wrap;html=1;" vertex="1" parent="1pU03YvxmxOZ_lnWLBFP-49">
          <mxGeometry x="30" y="110" width="200" height="40" as="geometry">
            <mxRectangle width="160" height="40" as="alternateBounds" />
          </mxGeometry>
        </mxCell>
        <mxCell id="1pU03YvxmxOZ_lnWLBFP-71" value="&lt;span style=&quot;border-color: var(--border-color);&quot;&gt;&lt;/span&gt;Last_Name&lt;span style=&quot;white-space: pre;&quot;&gt;&#x9;&lt;span style=&quot;white-space: pre;&quot;&gt;&#x9;&lt;/span&gt;&lt;/span&gt;varchar(50)" style="shape=partialRectangle;connectable=0;fillColor=none;top=0;left=0;bottom=0;right=0;align=left;spacingLeft=6;overflow=hidden;whiteSpace=wrap;html=1;" vertex="1" parent="1pU03YvxmxOZ_lnWLBFP-49">
          <mxGeometry x="30" y="80" width="200" height="40" as="geometry">
            <mxRectangle width="160" height="40" as="alternateBounds" />
          </mxGeometry>
        </mxCell>
      </root>
    </mxGraphModel>
  </diagram>
</mxfile>
